<?xml version="1.0" encoding="utf-8"?>
<!-- Generator: Adobe Illustrator 25.2.1, SVG Export Plug-In . SVG Version: 6.00 Build 0)  -->
<svg version="1.1" id="Layer_1" xmlns="http://www.w3.org/2000/svg" xmlns:xlink="http://www.w3.org/1999/xlink" x="0px" y="0px"
	 viewBox="0 0 608 469" style="enable-background:new 0 0 608 469;" xml:space="preserve">
<style type="text/css">
	.st0{opacity:0.04;}
	.st1{fill:#FFCF33;}
</style>
<g class="st0">
	<path class="st1" d="M228.59,277.58c-0.11,0.09-0.22,0.19-0.33,0.3c-1.22,1.19-1.72,2.7-1.89,3.3c-0.47,1.63-0.28,2.99-0.15,4
		c0.07,0.47,0.26,1.66,0.86,3.02c0.34,0.75,0.68,1.31,0.92,1.66c1.69,2.56,4.53,4.96,6.89,8.2c8.57,9.32,15.62,18.06,21.33,25.72
		c0.53,0.71,1.05,1.41,1.57,2.11c1.31,1.79,2.54,3.51,3.71,5.16c15.26,21.7,21.2,35.32,23.22,41.69c2.25,7.08,4.06,13.73,5.42,19.94
		c0.77,4,1.41,8.95,1.49,14.68c0.01,0.74,0.02,1.49,0.01,2.26c-0.01,0.49-0.02,0.98-0.03,1.49c-0.14,4.64-0.63,8.8-1.25,12.38
		l-0.44,0.39l-0.83-0.88c-0.32-4.3-0.81-8.92-1.54-13.8c-0.11-0.7-0.21-1.39-0.32-2.07c-0.15-0.88-0.29-1.75-0.45-2.61
		c-0.61-3.5-1.3-6.78-2.02-9.86c-3.92-16.86-9.81-32.24-17.63-46.13c-3.5-6.21-7.25-12.03-10.93-17.26
		c-0.53-0.76-1.06-1.5-1.59-2.24c-5.88-8.16-11.47-14.79-15.45-19.2c-2.74-3.03-5.68-6.12-8.26-8.91c-0.41-0.35-0.73-0.64-1.06-0.99
		c-0.34-0.35-0.86-0.92-1.43-1.52c-0.49-0.51-0.62-0.64-1.04-1.11c-1.42-1.56-2.51-2.78-3.66-4.62c-0.73-1.16-1.1-1.75-1.36-2.53
		c-0.14-0.43-1.12-3.42,0.14-6.4c0.54-1.27,1.38-2.24,1.84-2.77c0.23-0.26,1.1-1.26,2.72-2.42
		C227.6,278.19,228.12,277.86,228.59,277.58z"/>
	<path class="st1" d="M231,276.4c0,0.03-0.98,0.36-2.4,1.17C229.8,276.58,230.99,276.37,231,276.4z"/>
	<path class="st1" d="M363.3,296.58c-1.94,1.57-3.71,2.28-3.91,2.32C359.53,298.81,361.06,298.04,363.3,296.58z"/>
	<path class="st1" d="M366.45,293.11c0.27,0.21,0.54,0.43,0.81,0.65c-0.55,0.43-1.08,0.83-1.6,1.19c-0.85,0.61-1.64,1.15-2.36,1.62
		c0.46-0.38,0.93-0.8,1.39-1.28c0.2-0.21,0.4-0.42,0.58-0.64C365.72,294.14,366.1,293.63,366.45,293.11z"/>
	<path class="st1" d="M329.83,279.25c-0.26-0.03-0.53-0.06-0.79-0.1l0.01-0.06c0.05-0.25,0.09-0.5,0.14-0.74l0.75,0.1
		c0.02,0,0.03,0,0.05,0.01c3.48,0.43,6.93,1.1,10.27,2.01c0.08,0.02,0.16,0.04,0.24,0.06l0.57,0.16c0.01,0.18,0.02,0.38,0.02,0.59
		l0.01,0.25c-0.26-0.08-0.54-0.16-0.81-0.23C337.3,280.5,333.77,279.74,329.83,279.25z"/>
	<path class="st1" d="M352.77,395.07c-1.72,8.01-7.13,12.66-9.17,14.41c-1.61,1.4-5.12,4.03-10.43,5.86
		c-3.35,1.15-7.51,1.76-12.02,1.76c-9.41,0-19.56-2.48-28.73-7c-0.13-0.06-0.26-0.12-0.38-0.18l-0.77-0.39
		c-0.14-0.07-0.29-0.15-0.44-0.23l0.01-0.49v-0.42c0-0.62,0-1.23-0.02-1.83l-0.01-0.45l-0.01-0.91l1.19,0.63
		c1.4,0.74,2.77,1.4,4.07,1.95c4.06,1.72,12.49,5.33,23.49,5.33c1.77,0,3.57-0.1,5.33-0.28c0.58-0.06,1.19-0.1,1.84-0.15
		c2.82-0.19,6.02-0.42,9.27-2.29c1.3-0.74,4.32-2.48,6.04-6c1.9-3.91,1.11-7.75,0.58-10.28c-1.08-5.25-3.3-8.57-5.44-11.77
		c-0.7-1.04-1.41-2.12-2.08-3.23c-3.78-6.36-5.78-14.03-5.95-22.81l-0.76-48.59c-2.31,1.8-4.58,3.42-6.78,5
		c-3.45,2.46-6.7,4.8-10.13,7.74c-0.89,0.77-2.99,2.57-4.94,5.54c-1.37,2.09-2.43,4.43-3.07,6.76c-0.85,3.09-1.67,6.02-0.63,9.14
		c1.65,4.95,6.84,6.99,7.96,7.4c-1.73,0.39-4.66,0.78-7.92-0.21c-8.48-2.57-11.25-12.07-11.73-13.73c-0.56-1.93-2.31-8.88,1.32-15.9
		c0.96-1.86,2.14-3.18,4.48-5.79l0.08-0.09c3.84-4.27,7.41-7.04,11.55-10.25c1.02-0.79,1.49-1.14,2.33-1.76
		c0.92-0.68,2.29-1.68,5.3-3.95c5.27-3.99,5.8-4.48,6.58-5.3c3.35-3.64,4.76-7.44,5.22-8.9c0.03-0.1,0.06-0.19,0.08-0.29l0.06-0.22
		c0.26-0.94,0.51-1.92,0.71-2.94l0.01-0.01l0.8,0.1c0.02,0,0.04,0.01,0.06,0.01c3.49,0.43,6.97,1.11,10.33,2.05
		c0.08,0.02,0.15,0.04,0.23,0.06l0.81,0.22v0.01c0.03,1.67-0.01,3.38-0.1,5.11c0,0-0.07,1.48-0.1,1.99
		c0.07,1.28,0.14,2.57,0.19,3.86c0.97,19.95,1.49,40.23,1.55,60.26c0.06,5.66,1.11,10.9,3.1,15.57c0.95,2.23,1.89,3.81,2.81,5.34
		c1.35,2.27,2.61,4.41,3.58,8.12C352.77,385.08,353.94,389.62,352.77,395.07z"/>
	<path class="st1" d="M351.98,394.9c-1.63,7.58-6.64,12.03-8.9,13.97c-1.08,0.94-4.56,3.78-10.16,5.72
		c-9.74,3.34-25.87,1.94-40.48-5.37v-0.01c-0.26-0.13-0.53-0.26-0.79-0.4c0-0.77,0-1.52-0.02-2.26c0.28,0.14,0.55,0.29,0.8,0.42
		c1.57,0.79,2.74,1.3,3.33,1.56c5.02,2.14,15.56,6.54,29.22,5.1c3.07-0.32,7.24-0.13,11.44-2.53c1.46-0.84,4.57-2.67,6.36-6.34
		c1.97-4.06,1.21-8.04,0.64-10.8c-1.47-7.12-4.92-10.71-7.61-15.25c-2.75-4.63-5.63-11.74-5.84-22.42l-0.79-50.2
		c-6.27,5.02-12.06,8.48-18.21,13.75c-1.06,0.91-3.14,2.75-5.08,5.71c-2.03,3.1-2.88,5.89-3.18,6.99c-0.65,2.36-1.53,5.56-0.64,9.53
		c0.27,1.21,1.16,5.15,4.41,8.24c-1.04-0.55-2.1-1.17-3.14-1.88c-3.65-2.48-6.07-5.29-6.99-6.36c-1.15-1.36-3.26-3.84-4.44-6.99
		c-2.75-7.37,0.76-14.25,1.28-15.25c0.93-1.79,2.11-3.1,4.45-5.71c3.7-4.11,7.08-6.77,11.44-10.15c2.11-1.65,1.87-1.37,7.62-5.71
		c5.19-3.92,5.84-4.49,6.68-5.4c3.75-4.07,5.13-8.33,5.41-9.21c0.06-0.18,0.08-0.3,0.14-0.52c0.3-1.06,0.55-2.09,0.75-3.08
		c0.02,0,0.04,0.01,0.06,0.01c3.49,0.43,6.97,1.11,10.33,2.05c0.08,0.02,0.15,0.04,0.23,0.06c0.03,1.37,0.02,3.18-0.09,5.3
		c-0.04,0.76-0.07,1.43-0.1,2.03c0.07,1.3,0.14,2.59,0.2,3.9c0.98,20.35,1.48,40.44,1.54,60.22c0.08,7.24,1.7,12.45,3.17,15.89
		c2.41,5.63,4.79,7.31,6.34,13.34C352.03,385.45,353.09,389.71,351.98,394.9z"/>
	<path class="st1" d="M340.96,278.45c-0.19-0.06-0.39-0.11-0.59-0.16c-0.07-0.02-0.15-0.04-0.22-0.06
		c-0.98-0.26-1.91-0.49-2.85-0.69c-0.71-0.15-3.3-0.68-7.02-1.08h-0.02c-0.26-0.02-0.52-0.06-0.78-0.07
		c0.23-1.68,0.38-3.36,0.43-4.99c0.18-5.12-0.02-9.58-0.18-13.15c-0.26-5.73-0.37-8.11,1.16-8.56c0.12-0.04,0.24-0.06,0.37-0.06
		c0.44,0,0.87,0.22,1.31,0.65c3.1,3.14,8.37,21.62,8.36,24.05v0.06l-0.01,0.03v0.35c0,0.64,0,1.85,0.03,3.22
		C340.94,278.16,340.95,278.31,340.96,278.45z"/>
	<path class="st1" d="M341.08,281.55c-0.26-0.08-0.54-0.16-0.81-0.23c-2.98-0.82-6.5-1.58-10.44-2.06c-0.26-0.03-0.53-0.06-0.79-0.1
		l0.01-0.06c0.05-0.25,0.09-0.5,0.14-0.74c0.07-0.41,0.14-0.8,0.19-1.19c0.27,0.03,0.54,0.06,0.8,0.09
		c3.82,0.41,6.45,0.95,6.96,1.07c1.05,0.22,2.06,0.47,3.04,0.73c0.27,0.07,0.55,0.14,0.81,0.22l0.04,0.79
		c0.01,0.18,0.02,0.39,0.03,0.63c0.01,0.18,0.02,0.38,0.02,0.59L341.08,281.55z"/>
	<path class="st1" d="M340.15,278.24c-0.98-0.26-1.91-0.49-2.85-0.69c-0.71-0.15-3.3-0.68-7.02-1.08c0.33-2.47,0.4-4.32,0.43-5.03
		c0.43-11.9-1.24-20.49,0.4-20.97c2.67-0.79,9.02,21.55,9.01,23.87c0,0.01-0.01,0.03-0.01,0.06c0.01,0.34-0.01,1.86,0.03,3.63
		C340.14,278.09,340.14,278.16,340.15,278.24z"/>
	<path class="st1" d="M340.27,281.32c-2.98-0.82-6.5-1.58-10.44-2.06c0.06-0.26,0.1-0.53,0.14-0.79c0.07-0.41,0.14-0.81,0.2-1.2
		c3.82,0.41,6.45,0.95,6.96,1.07c1.05,0.22,2.06,0.47,3.04,0.73c0.02,0.24,0.02,0.49,0.04,0.77c0.01,0.17,0.02,0.38,0.03,0.65
		C340.25,280.72,340.26,281,340.27,281.32z"/>
	<path class="st1" d="M324.92,219.66"/>
	<path class="st1" d="M303.02,88.55c-0.27,0.26-0.54,0.54-0.8,0.83c-2.93,3.29-3.69,7.03-3.93,8.52c-0.64,4.02,0.43,7.16,1.22,9.47
		c0.37,1.08,1.39,3.81,3.6,6.78c2.11,2.84,4.31,4.55,5.42,5.4c7.92,6,15.13,9.31,23.58,16.05c2.77,2.21,5.35,4.53,6.55,8.19
		c0.53,1.6,0.67,3.16,1.03,6.3c0.23,2.01,0.34,3.76,0.4,5.1l0.03-0.05c0.5,25.16,0.98,50.32,1.47,75.48
		c0.76,1.79,2.29,4.74,5.02,7.58c0.86,0.9,1.52,1.44,6.79,5.25c5.85,4.23,5.59,3.95,7.74,5.55c4.43,3.29,7.87,5.87,11.65,9.91
		c2.4,2.56,3.61,3.84,4.57,5.62c0.54,0.99,4.2,7.79,1.61,15.21c-1.11,3.17-3.18,5.7-4.3,7.08c-2.34,2.87-4.54,4.68-6.85,6.5
		c-0.2,0.15-0.39,0.3-0.57,0.44c-0.27-0.23-0.54-0.45-0.81-0.65c1.74-2.62,2.32-5.18,2.52-6.16c0.81-4-0.15-7.17-0.84-9.52
		c-0.33-1.09-1.24-3.87-3.33-6.92c-2-2.92-4.13-4.72-5.21-5.61c-7.67-6.31-14.75-9.9-22.93-16.97c-0.81-0.7-1.84-1.54-2.83-2.6
		c-3.15-1.68-7.89-4.12-13.79-6.87c-9.69-4.52-13.08-5.46-18.92-9.04c-6.61-4.05-10.66-6.52-12.99-10.83
		c-3.48-6.46-3.14-15.89,3.45-21.59c9.29-8.04,26.56-7.18,30.42-15.87c0.69-1.55,0.73-2.92,0.69-3.75
		c1.66,10.54-2.07,16.09-6.14,19.24c-7.7,5.94-13.98,3.86-18.25,9.81c-0.84,1.15-1.66,2.3-1.62,3.86c0.1,3.56,4.65,6.25,14.69,10.68
		c4.81,2.12,11.18,4.77,18.89,7.54c-0.05-18.92-0.09-37.84-0.15-56.75c-0.04,0.03-0.06,0.04-0.07,0.03l0-0.01
		c-0.03-1.06-0.06-1.68-0.08-2.41c-0.05-1.14-0.1-1.84-0.17-4.03c-0.24-7.68-0.89-9.67-1.3-10.74c-0.32-0.86-1.96-5.02-5.95-8.86
		c-0.9-0.86-1.57-1.38-6.99-4.98c-6.01-3.99-5.75-3.73-7.96-5.24c-4.55-3.11-8.09-5.56-12.04-9.44c-2.5-2.46-3.75-3.7-4.79-5.43
		c-0.58-0.97-4.51-7.62-2.21-15.14c0.98-3.21,2.95-5.82,4.01-7.25c0.53-0.7,2.53-3.39,6.59-6.77
		C300.52,90.36,301.82,89.38,303.02,88.55z"/>
	<path class="st1" d="M351.66,251.48"/>
	<path class="st1" d="M329.68,280.04c-0.27-0.03-0.54-0.06-0.81-0.09l0.01-0.01L329.68,280.04z"/>
	<path class="st1" d="M340.29,282.16l0.81,0.22v0.01C340.84,282.31,340.57,282.23,340.29,282.16z"/>
	<path class="st1" d="M380.56,393.02c-2.69-2.29-5.74-4.66-9.2-6.99c-2.12-1.43-4.19-2.71-6.18-3.87c8.4-3.6,13.06-8.44,15.41-11.37
		c15.7-19.54,5.06-48.77,4.25-50.89c-0.03-0.1-0.06-0.18-0.09-0.24c-4.52-11.73-12.04-19.94-19.09-25.5c-0.13-0.1-0.26-0.2-0.38-0.3
		c-6.59-5.13-12.71-7.94-15.45-9.16c-1.37-0.61-4.43-1.92-8.75-3.14c-0.26-0.08-0.54-0.16-0.81-0.23c-2.98-0.82-6.5-1.58-10.44-2.06
		c-0.26-0.03-0.53-0.06-0.79-0.1h-0.01c-9.54-1.07-21.4-0.47-33.82,4.86c-19.45,8.35-31.89,24.69-37.43,41.06
		c-0.61,1.8-1.13,3.6-1.57,5.39c-0.15,0.6-0.29,1.2-0.43,1.8c-3.12,14.44-0.44,26.4,0.62,30.49c0.71,2.73,4.22,15.49,15.23,27.96
		c5.24,5.93,10.71,10.14,15.16,12.99c1.47,0.95,2.83,1.74,4.03,2.4l-0.01-0.91l1.19,0.63l0.42,0.22l0.01,0.47
		c0,0.14,0.01,0.29,0,0.43c0.02,0.61,0.02,1.23,0.02,1.85l-0.01,0.39v0.01l-0.01,0.88v0.01l-0.38-0.19l-0.77-0.39
		c-0.14-0.07-0.29-0.15-0.44-0.23l0.01-0.49v-0.42c-0.7-0.36-1.39-0.75-2.07-1.14c-0.51-0.3-1.03-0.61-1.53-0.93
		c-20.59-12.7-36.51-38.01-34.63-65.79c0.3-4.43,1.03-8.54,2.01-12.3c0.47-1.84,1.01-3.59,1.6-5.26c3.38-9.7,8.16-16.4,10.39-19.28
		c14.84-19.24,36.37-25.5,49.57-26.64c4.88-0.43,9.53-0.22,13.2,0.13c0.27,0.03,0.54,0.06,0.8,0.09c3.82,0.41,6.45,0.95,6.96,1.07
		c1.05,0.22,2.06,0.47,3.04,0.73c0.27,0.07,0.55,0.14,0.81,0.22c5.53,1.51,9.86,3.38,12.66,4.77c2.09,1.03,7.04,3.61,12.81,8.24
		c0.27,0.21,0.54,0.43,0.82,0.66c3.6,2.98,7.47,6.76,11.14,11.44c1.8,2.31,4.83,6.23,7.62,12.07c0,0,1.05,2.38,2.29,6.19
		c1.24,3.82,2.67,9.05,3.41,14.78C392.74,345.36,391.32,366.94,380.56,393.02z"/>
	<path class="st1" d="M380.56,393.02c-2.69-2.29-5.74-4.66-9.2-6.99c-2.12-1.43-4.19-2.71-6.18-3.87c8.4-3.6,13.06-8.44,15.41-11.37
		c15.7-19.54,5.06-48.77,4.25-50.89c-0.03-0.1-0.06-0.18-0.09-0.24c-4.52-11.73-12.04-19.94-19.09-25.5c-0.13-0.1-0.26-0.2-0.38-0.3
		c-6.59-5.13-12.71-7.94-15.45-9.16c-1.37-0.61-4.43-1.92-8.75-3.14c-0.26-0.08-0.54-0.16-0.81-0.23c-2.98-0.82-6.5-1.58-10.44-2.06
		c-0.26-0.03-0.53-0.06-0.79-0.1h-0.01c-9.54-1.07-21.4-0.47-33.82,4.86c-19.45,8.35-31.89,24.69-37.43,41.06
		c-0.61,1.8-1.13,3.6-1.57,5.39c-0.15,0.6-0.29,1.2-0.43,1.8c-3.12,14.44-0.44,26.4,0.62,30.49c0.71,2.73,4.22,15.49,15.23,27.96
		c5.24,5.93,10.71,10.14,15.16,12.99c1.47,0.95,2.83,1.74,4.03,2.4c0.28,0.15,0.55,0.3,0.81,0.44c0.02,0.74,0.02,1.49,0.02,2.26
		c-0.27-0.14-0.54-0.27-0.8-0.43c-0.7-0.36-1.39-0.75-2.07-1.14c-0.51-0.3-1.03-0.61-1.53-0.93c-20.59-12.7-36.51-38.01-34.63-65.79
		c0.3-4.43,1.03-8.54,2.01-12.3c0.47-1.84,1.01-3.59,1.6-5.26c3.38-9.7,8.16-16.4,10.39-19.28c14.84-19.24,36.37-25.5,49.57-26.64
		c4.88-0.43,9.53-0.22,13.2,0.13c0.27,0.03,0.54,0.06,0.8,0.09c3.82,0.41,6.45,0.95,6.96,1.07c1.05,0.22,2.06,0.47,3.04,0.73
		c0.27,0.07,0.55,0.14,0.81,0.22c5.53,1.51,9.86,3.38,12.66,4.77c2.09,1.03,7.04,3.61,12.81,8.24c0.27,0.21,0.54,0.43,0.82,0.66
		c3.6,2.98,7.47,6.76,11.14,11.44c1.8,2.31,4.83,6.23,7.62,12.07c0,0,1.05,2.38,2.29,6.19c1.24,3.82,2.67,9.05,3.41,14.78
		C392.74,345.36,391.32,366.94,380.56,393.02z"/>
	<path class="st1" d="M321.19,38.52l1.03,3.9c1.05,3.98,4.31,7,8.36,7.74l3.7,0.68l-3.71,0.69c-4.05,0.75-7.29,3.78-8.33,7.76
		l-1.02,3.9l-1.01-3.91c-1.02-3.98-4.25-7.01-8.28-7.78l-3.29-0.63l3.28-0.64c4.03-0.78,7.25-3.82,8.27-7.81L321.19,38.52z"/>
	<path class="st1" d="M283.13,115l-3.88,1.11c-3.96,1.13-6.91,4.45-7.57,8.51l-0.6,3.72l-0.77-3.69c-0.84-4.03-3.93-7.21-7.93-8.17
		l-3.92-0.94l3.88-1.09c3.96-1.11,6.92-4.39,7.61-8.44l0.56-3.3l0.7,3.27c0.87,4.02,3.97,7.17,7.97,8.11L283.13,115z"/>
	<path class="st1" d="M281.89,212.19l-3.88,1.11c-3.96,1.13-6.91,4.45-7.57,8.51l-0.6,3.72l-0.77-3.69
		c-0.84-4.03-3.93-7.21-7.93-8.17l-3.92-0.94l3.88-1.09c3.96-1.11,6.92-4.39,7.61-8.44l0.56-3.3l0.7,3.27
		c0.87,4.02,3.97,7.17,7.97,8.11L281.89,212.19z"/>
	<path class="st1" d="M327.72,68.05"/>
	<path class="st1" d="M331.05,179.84"/>
	<g>
		<path class="st1" d="M309.26,84.81c0,0.08-2.61,1.23-6.24,3.74C305.94,85.72,309.22,84.74,309.26,84.81z"/>
	</g>
	<g>
		<path class="st1" d="M305.5,31.63c-0.27,0.24-0.54,0.5-0.81,0.77c-3.06,3.17-3.97,6.88-4.27,8.36c-0.81,3.99,0.15,7.17,0.84,9.51
			c0.33,1.1,1.24,3.87,3.33,6.92c2,2.93,4.13,4.72,5.21,5.61c7.67,6.31,14.75,9.9,22.93,16.97c2.68,2.32,5.16,4.74,6.22,8.44
			c0.46,1.62,0.53,3.19,0.77,6.33c0.15,2.01,0.19,3.74,0.2,5.08l0.03-0.02l-0.12,22.6l-10.72,7.11l-0.08-6.99l0.2-16.37
			c-0.11-4.91-0.56-6.45-0.86-7.36c-0.29-0.87-1.76-5.09-5.6-9.09c-0.86-0.89-1.52-1.44-6.79-5.25c-5.85-4.22-5.59-3.95-7.74-5.55
			c-4.43-3.29-7.87-5.88-11.65-9.91c-2.4-2.56-3.61-3.84-4.57-5.62c-0.53-0.99-4.2-7.79-1.6-15.21c1.11-3.17,3.17-5.7,4.29-7.08
			c0.55-0.68,2.66-3.29,6.85-6.51C302.94,33.31,304.28,32.4,305.5,31.63z"/>
		<path class="st1" d="M311.9,28.12c0,0.09-2.67,1.14-6.4,3.51C308.54,28.89,311.86,28.04,311.9,28.12z"/>
	</g>
</g>
</svg>
