<?xml version="1.0" encoding="utf-8"?>
<!-- Generator: Adobe Illustrator 25.2.1, SVG Export Plug-In . SVG Version: 6.00 Build 0)  -->
<svg version="1.1" id="Layer_1" xmlns="http://www.w3.org/2000/svg" xmlns:xlink="http://www.w3.org/1999/xlink" x="0px" y="0px"
	 viewBox="0 0 608 469" style="enable-background:new 0 0 608 469;" xml:space="preserve">
<style type="text/css">
	.st0{fill:#FFFFFF;}
	.st1{fill:#FFCF33;}
</style>
<g>
	<path class="st0" d="M294.18,295.92c-2.52,2.5-3.79,5.51-3.79,9.04c0,3.47,1.22,6.42,3.66,8.83c2.36,2.39,5.36,3.66,8.99,3.83
		v-0.08h32.93v-44.85h4.11v44.85h5.01v4.11h-42.77c-4.37-0.16-8.11-1.83-11.23-5.01c-3.31-3.31-4.97-7.31-4.97-12.01
		s1.65-8.72,4.97-12.09c1.68-1.68,3.38-2.86,5.09-3.54l1.99,4.19C296.81,293.71,295.48,294.62,294.18,295.92z M316.48,300.69h11.36
		v2.97h-23.28v-2.97h4.36c-2.52-2.55-3.79-5.37-3.79-8.47c0-3.09,1.12-5.77,3.36-8.04c2.24-2.27,5.01-3.4,8.32-3.4
		c3.28,0,5.86,1.13,7.73,3.38c1.87,2.25,2.67,4.91,2.4,7.98h-2.2c0-2.2-0.79-4.06-2.36-5.58c-1.57-1.63-3.46-2.44-5.66-2.44
		c-2.06,0-3.89,0.79-5.49,2.36c-1.6,1.57-2.4,3.57-2.4,5.98c0,2.31,0.76,4.22,2.28,5.74C312.68,299.81,314.47,300.63,316.48,300.69z
		"/>
	<path class="st0" d="M370.57,317.54c3.64-0.11,6.63-1.36,8.99-3.74c2.44-2.42,3.66-5.36,3.66-8.83c0-3.53-1.23-6.52-3.68-8.97
		c-2.46-2.46-5.42-3.68-8.89-3.68c-3.53,0-6.5,1.22-8.91,3.66c-2.5,2.47-3.74,5.28-3.74,8.42h-4.6c0.11-4.53,1.82-8.46,5.15-11.78
		c3.32-3.32,7.33-4.99,12.03-4.99c4.69,0,8.69,1.66,11.99,4.99c3.3,3.32,4.95,7.33,4.95,12.03s-1.66,8.7-4.97,12.01
		c-3.12,3.17-6.86,4.84-11.23,5.01h-26.9v-4.11h13.84l12.33-0.08V317.54z"/>
	<path class="st0" d="M403.33,317.09v-27.72l4.44-0.08v28.24h5.82v4.11h-6.1c-0.79,3.12-2.28,5.78-4.48,7.98
		c-3.36,3.28-7.37,4.92-12.01,4.92v0.08v-4.52c3.23,0.11,6.09-1.07,8.59-3.54c1.27-1.28,2.21-2.71,2.81-4.31L403.33,317.09z"/>
	<path class="st0" d="M412.94,321.65v-4.11h14.33v-0.77c-3.45-3.39-5.17-7.43-5.17-12.13s1.66-8.7,4.99-12.03
		c3.32-3.32,7.33-4.99,12.03-4.99s8.69,1.66,11.99,4.99c3.3,3.32,4.94,7.33,4.94,12.03s-1.64,8.7-4.92,12.01l-0.94,0.89h10.01v4.11
		H412.94z M437.64,317.45l1.95,0.08c3.31-0.11,6.15-1.36,8.51-3.74c2.44-2.42,3.66-5.36,3.66-8.83c0-3.53-1.23-6.52-3.68-8.97
		c-2.46-2.46-5.42-3.68-8.89-3.68c-3.53,0-6.52,1.23-8.97,3.68c-2.46,2.46-3.68,5.45-3.68,8.97c0,3.47,1.25,6.42,3.74,8.83
		C432.28,315.88,434.74,317.1,437.64,317.45z M441.97,274.6c0.71,0.65,1.07,1.47,1.07,2.44c0,0.98-0.36,1.79-1.07,2.44
		s-1.55,0.98-2.52,0.98c-1.03,0-1.9-0.33-2.61-0.98c-0.71-0.65-1.07-1.47-1.07-2.44c0-0.98,0.36-1.79,1.07-2.44
		c0.71-0.65,1.58-0.98,2.61-0.98C440.42,273.62,441.26,273.95,441.97,274.6z"/>
	<path class="st0" d="M459.54,321.65v-4.11h16.73V287.7h4.11v29.83h5.01v4.11H459.54z M480.19,274.6c0.69,0.65,1.04,1.47,1.04,2.44
		c0,0.98-0.35,1.79-1.04,2.44c-0.69,0.65-1.5,0.98-2.42,0.98c-0.98,0-1.81-0.33-2.48-0.98c-0.68-0.65-1.02-1.47-1.02-2.44
		c0-0.98,0.34-1.79,1.02-2.44c0.68-0.65,1.51-0.98,2.48-0.98C478.69,273.62,479.5,273.95,480.19,274.6z"/>
	<path class="st0" d="M501.42,317.54V287.7h4.11v33.94h-20.84v-4.11H501.42z M502.03,328.89c0,0.98-0.34,1.79-1.02,2.44
		c-0.68,0.65-1.48,0.98-2.4,0.98c-0.98,0-1.81-0.33-2.48-0.98s-1.02-1.47-1.02-2.44s0.34-1.79,1.02-2.44s1.51-0.98,2.48-0.98
		c0.92,0,1.72,0.33,2.4,0.98C501.69,327.1,502.03,327.91,502.03,328.89z"/>
	<path class="st1" d="M242.78,136.77c-0.1-0.12-0.21-0.24-0.33-0.37c-1.31-1.34-2.97-1.89-3.63-2.07c-1.79-0.52-3.29-0.31-4.4-0.16
		c-0.52,0.07-1.82,0.29-3.32,0.94c-0.83,0.37-1.44,0.75-1.82,1.01c-2.81,1.86-5.45,4.98-9.02,7.58
		c-10.25,9.42-19.87,17.18-28.28,23.46c-0.78,0.59-1.56,1.16-2.32,1.72c-1.97,1.44-3.86,2.8-5.68,4.08
		c-23.86,16.79-38.84,23.31-45.85,25.54c-7.78,2.48-15.1,4.46-21.93,5.96c-4.4,0.84-9.84,1.55-16.14,1.64
		c-0.82,0.01-1.64,0.02-2.49,0.01c-0.54-0.01-1.08-0.02-1.63-0.04c-5.1-0.15-9.68-0.69-13.62-1.37l-0.43-0.48l0.96-0.91
		c4.73-0.35,9.81-0.89,15.17-1.69c0.77-0.12,1.53-0.24,2.28-0.35c0.97-0.16,1.93-0.32,2.87-0.49c3.84-0.67,7.46-1.43,10.84-2.22
		c18.54-4.32,35.45-10.78,50.73-19.39c6.83-3.85,13.22-7.97,18.98-12.02c0.83-0.59,1.65-1.17,2.46-1.74
		c8.97-6.47,16.27-12.62,21.11-16.99c3.34-3.01,6.73-6.25,9.79-9.08c0.39-0.45,0.71-0.8,1.09-1.16c0.39-0.37,1.01-0.94,1.67-1.58
		c0.56-0.54,0.71-0.68,1.22-1.15c1.71-1.56,3.05-2.76,5.08-4.02c1.28-0.81,1.93-1.21,2.78-1.5c0.47-0.16,3.76-1.23,7.04,0.15
		c1.4,0.59,2.46,1.52,3.05,2.02c0.28,0.25,1.39,1.2,2.66,2.99C242.12,135.69,242.48,136.26,242.78,136.77z"/>
	<path class="st0" d="M244.08,139.42c-0.03,0-0.39-1.08-1.29-2.64C243.89,138.1,244.12,139.41,244.08,139.42z"/>
	<path class="st0" d="M221.9,284.91c-1.73-2.13-2.5-4.08-2.56-4.3C219.44,280.77,220.29,282.45,221.9,284.91z"/>
	<path class="st0" d="M225.71,288.38c-0.23,0.3-0.47,0.59-0.72,0.89c-0.47-0.6-0.91-1.19-1.31-1.76c-0.67-0.93-1.26-1.8-1.78-2.59
		c0.42,0.51,0.88,1.03,1.41,1.53c0.23,0.22,0.46,0.44,0.7,0.64C224.57,287.58,225.14,288,225.71,288.38z"/>
	<path class="st0" d="M240.94,248.1c0.04-0.29,0.07-0.58,0.11-0.87l0.06,0.01c0.27,0.05,0.55,0.1,0.81,0.15l-0.11,0.82
		c0,0.02,0,0.04-0.01,0.05c-0.47,3.83-1.21,7.62-2.21,11.3c-0.03,0.09-0.04,0.18-0.07,0.26l-0.18,0.63
		c-0.19,0.01-0.41,0.02-0.65,0.02l-0.27,0.01c0.09-0.29,0.18-0.59,0.26-0.89C239.58,256.32,240.41,252.44,240.94,248.1z"/>
	<path class="st0" d="M113.58,273.33c-8.81-1.9-13.93-7.84-15.85-10.08c-1.54-1.77-4.44-5.64-6.45-11.47
		c-1.27-3.69-1.94-8.26-1.94-13.22c0-10.35,2.73-21.51,7.7-31.59c0.07-0.14,0.13-0.28,0.2-0.42l0.43-0.85
		c0.08-0.16,0.17-0.32,0.26-0.49l0.54,0.01h0.46c0.68,0,1.35,0,2.01-0.02l0.49-0.01l1-0.01l-0.7,1.31
		c-0.81,1.53-1.53,3.04-2.14,4.47c-1.9,4.46-5.86,13.73-5.86,25.83c0,1.95,0.11,3.92,0.31,5.86c0.07,0.63,0.11,1.31,0.17,2.03
		c0.21,3.1,0.46,6.62,2.51,10.2c0.81,1.43,2.73,4.75,6.6,6.64c4.3,2.09,8.52,1.22,11.31,0.63c5.77-1.19,9.42-3.62,12.95-5.98
		c1.15-0.77,2.33-1.55,3.55-2.28c6.99-4.15,15.43-6.36,25.08-6.54l53.44-0.84c-1.98-2.54-3.77-5.04-5.49-7.45
		c-2.71-3.79-5.27-7.36-8.51-11.14c-0.85-0.98-2.82-3.29-6.09-5.43c-2.3-1.51-4.88-2.67-7.43-3.38c-3.4-0.94-6.62-1.84-10.05-0.7
		c-5.44,1.81-7.69,7.52-8.14,8.75c-0.43-1.9-0.86-5.13,0.23-8.71c2.83-9.33,13.27-12.37,15.1-12.9c2.12-0.62,9.77-2.54,17.49,1.46
		c2.05,1.06,3.49,2.35,6.37,4.93l0.1,0.09c4.69,4.22,7.74,8.15,11.27,12.7c0.87,1.12,1.25,1.64,1.94,2.57
		c0.75,1.01,1.85,2.52,4.35,5.83c4.38,5.79,4.92,6.38,5.83,7.23c4,3.69,8.18,5.24,9.79,5.74c0.11,0.04,0.21,0.06,0.32,0.09
		l0.24,0.07c1.03,0.29,2.12,0.56,3.24,0.78l0.01,0.01l-0.11,0.88c0,0.02-0.01,0.04-0.01,0.06c-0.48,3.84-1.23,7.66-2.25,11.36
		c-0.03,0.09-0.04,0.17-0.07,0.26l-0.25,0.89h-0.01c-1.83,0.04-3.71-0.01-5.62-0.11c0,0-1.63-0.08-2.19-0.11
		c-1.41,0.08-2.82,0.15-4.24,0.21c-21.94,1.07-44.24,1.64-66.27,1.7c-6.23,0.07-11.99,1.22-17.12,3.41
		c-2.45,1.05-4.19,2.08-5.87,3.09c-2.5,1.48-4.85,2.88-8.93,3.93C124.57,273.33,119.57,274.62,113.58,273.33z"/>
	<path class="st0" d="M113.77,272.46c-8.33-1.79-13.23-7.3-15.36-9.79c-1.03-1.19-4.15-5.02-6.29-11.17
		c-3.68-10.71-2.13-28.45,5.9-44.52h0.01c0.14-0.29,0.29-0.58,0.44-0.87c0.85,0,1.68,0,2.49-0.02c-0.16,0.31-0.32,0.6-0.46,0.88
		c-0.87,1.73-1.43,3.02-1.71,3.66c-2.35,5.52-7.2,17.11-5.61,32.13c0.35,3.38,0.14,7.96,2.79,12.58c0.93,1.61,2.94,5.03,6.98,6.99
		c4.46,2.17,8.84,1.33,11.88,0.71c7.83-1.61,11.78-5.41,16.77-8.37c5.09-3.03,12.91-6.19,24.65-6.42l55.21-0.86
		c-5.52-6.9-9.32-13.26-15.13-20.02c-1-1.16-3.03-3.46-6.28-5.59c-3.4-2.23-6.47-3.17-7.68-3.5c-2.59-0.71-6.11-1.68-10.48-0.71
		c-1.33,0.3-5.66,1.28-9.06,4.85c0.6-1.15,1.29-2.31,2.06-3.46c2.73-4.01,5.82-6.68,6.99-7.68c1.49-1.27,4.22-3.59,7.68-4.89
		c8.11-3.03,15.67,0.84,16.77,1.41c1.97,1.02,3.4,2.32,6.28,4.89c4.52,4.07,7.44,7.79,11.17,12.59c1.82,2.32,1.51,2.05,6.28,8.38
		c4.31,5.71,4.94,6.42,5.94,7.35c4.48,4.13,9.16,5.64,10.12,5.94c0.2,0.06,0.34,0.09,0.57,0.16c1.16,0.33,2.3,0.6,3.39,0.83
		c0,0.02-0.01,0.04-0.01,0.06c-0.48,3.84-1.23,7.66-2.25,11.36c-0.03,0.09-0.04,0.17-0.07,0.26c-1.51,0.04-3.5,0.03-5.83-0.1
		c-0.84-0.04-1.57-0.08-2.23-0.11c-1.43,0.08-2.85,0.15-4.29,0.22c-22.38,1.08-44.47,1.63-66.23,1.69
		c-7.96,0.09-13.7,1.87-17.47,3.48c-6.19,2.65-8.03,5.27-14.67,6.98C124.17,272.52,119.47,273.69,113.77,272.46z"/>
	<path class="st0" d="M241.83,260.35c0.06-0.21,0.12-0.43,0.18-0.64c0.03-0.08,0.04-0.17,0.06-0.25c0.28-1.08,0.54-2.1,0.76-3.13
		c0.17-0.78,0.75-3.62,1.19-7.72v-0.03c0.03-0.28,0.06-0.57,0.08-0.86c1.85,0.26,3.7,0.41,5.49,0.47c5.64,0.2,10.53-0.02,14.46-0.2
		c6.31-0.28,8.92-0.41,9.41,1.28c0.04,0.13,0.06,0.26,0.06,0.41c0,0.49-0.24,0.96-0.71,1.44c-3.45,3.41-23.78,9.21-26.45,9.19h-0.07
		l-0.04-0.01h-0.39c-0.71,0-2.04,0-3.54,0.04C242.14,260.33,241.98,260.34,241.83,260.35z"/>
	<path class="st0" d="M238.42,260.48c0.09-0.29,0.18-0.59,0.26-0.89c0.9-3.27,1.74-7.15,2.27-11.48c0.04-0.29,0.07-0.58,0.11-0.87
		l0.06,0.01c0.27,0.05,0.55,0.1,0.81,0.15c0.45,0.08,0.88,0.15,1.31,0.21c-0.04,0.3-0.06,0.59-0.1,0.88
		c-0.45,4.2-1.05,7.09-1.17,7.66c-0.25,1.16-0.52,2.27-0.8,3.34c-0.08,0.3-0.16,0.6-0.25,0.89l-0.86,0.04
		c-0.19,0.01-0.43,0.03-0.7,0.04c-0.19,0.01-0.41,0.02-0.65,0.02L238.42,260.48z"/>
	<path class="st0" d="M242.06,259.46c0.28-1.08,0.54-2.1,0.76-3.13c0.17-0.78,0.75-3.62,1.19-7.72c2.72,0.36,4.75,0.44,5.53,0.47
		c13.09,0.48,22.53-1.36,23.06,0.44c0.86,2.94-23.7,9.92-26.25,9.9c-0.01,0-0.04-0.01-0.06-0.01c-0.38,0.01-2.05-0.01-4,0.04
		C242.22,259.45,242.14,259.45,242.06,259.46z"/>
	<path class="st0" d="M238.68,259.59c0.9-3.27,1.74-7.15,2.27-11.48c0.29,0.06,0.58,0.11,0.86,0.16c0.45,0.08,0.89,0.15,1.32,0.22
		c-0.45,4.2-1.05,7.09-1.17,7.66c-0.25,1.16-0.52,2.27-0.8,3.34c-0.26,0.02-0.54,0.03-0.85,0.04c-0.19,0.01-0.42,0.02-0.71,0.04
		C239.33,259.57,239.02,259.58,238.68,259.59z"/>
	<path class="st0" d="M306.48,242.71"/>
	<path class="st0" d="M450.66,218.62c-0.29-0.3-0.59-0.6-0.92-0.88c-3.62-3.22-7.73-4.05-9.37-4.32c-4.42-0.71-7.87,0.47-10.41,1.34
		c-1.19,0.41-4.19,1.53-7.46,3.96c-3.13,2.32-5.01,4.74-5.93,5.96c-6.6,8.71-10.24,16.64-17.65,25.93c-2.43,3.04-4.98,5.88-9.01,7.2
		c-1.76,0.58-3.48,0.73-6.93,1.13c-2.21,0.25-4.13,0.37-5.61,0.44l0.06,0.03c-27.67,0.55-55.33,1.08-83,1.62
		c-1.96,0.83-5.21,2.52-8.33,5.52c-0.98,0.94-1.59,1.67-5.77,7.46c-4.65,6.43-4.35,6.15-6.11,8.51c-3.62,4.87-6.46,8.66-10.9,12.81
		c-2.82,2.64-4.22,3.97-6.18,5.03c-1.09,0.59-8.57,4.61-16.73,1.77c-3.49-1.22-6.27-3.49-7.79-4.72c-3.16-2.57-5.15-4.99-7.15-7.53
		c-0.17-0.22-0.33-0.42-0.49-0.63c0.25-0.3,0.49-0.6,0.72-0.89c2.88,1.91,5.7,2.55,6.78,2.77c4.39,0.89,7.89-0.16,10.46-0.93
		c1.2-0.36,4.25-1.36,7.61-3.66c3.21-2.2,5.19-4.54,6.17-5.73c6.94-8.44,10.89-16.22,18.66-25.21c0.77-0.89,1.7-2.02,2.86-3.11
		c1.85-3.47,4.54-8.68,7.56-15.17c4.97-10.66,6.01-14.39,9.95-20.8c4.46-7.27,7.17-11.72,11.91-14.28
		c7.11-3.83,17.48-3.46,23.75,3.79c8.84,10.21,7.9,29.21,17.45,33.45c1.7,0.76,3.21,0.81,4.13,0.76c-11.6,1.82-17.7-2.27-21.16-6.75
		c-6.54-8.47-4.25-15.37-10.78-20.07c-1.26-0.92-2.53-1.82-4.25-1.78c-3.91,0.11-6.88,5.11-11.75,16.16
		c-2.33,5.29-5.24,12.29-8.29,20.78c20.8-0.05,41.61-0.1,62.41-0.16c-0.04-0.05-0.04-0.07-0.04-0.08l0.01,0
		c1.17-0.04,1.85-0.06,2.65-0.09c1.26-0.05,2.02-0.11,4.43-0.19c8.45-0.26,10.63-0.98,11.82-1.43c0.95-0.36,5.52-2.15,9.74-6.55
		c0.94-0.99,1.52-1.73,5.47-7.69c4.39-6.61,4.1-6.32,5.76-8.76c3.42-5.01,6.11-8.9,10.38-13.24c2.71-2.75,4.07-4.13,5.97-5.27
		c1.06-0.64,8.38-4.96,16.65-2.43c3.53,1.08,6.4,3.24,7.97,4.41c0.77,0.58,3.73,2.79,7.44,7.24
		C448.67,215.88,449.75,217.31,450.66,218.62z"/>
	<path class="st0" d="M271.49,272.12"/>
	<path class="st0" d="M240.08,247.94c0.04-0.3,0.07-0.59,0.1-0.89l0.01,0.01L240.08,247.94z"/>
	<path class="st0" d="M237.75,259.61l-0.25,0.89h-0.01C237.58,260.21,237.67,259.91,237.75,259.61z"/>
	<path class="st0" d="M115.84,303.9c2.51-2.95,5.12-6.31,7.69-10.12c1.57-2.33,2.98-4.6,4.25-6.8c3.96,9.24,9.29,14.36,12.51,16.94
		c21.49,17.27,53.63,5.57,55.97,4.67c0.11-0.04,0.2-0.07,0.26-0.1c12.9-4.97,21.93-13.24,28.04-20.99c0.11-0.14,0.22-0.28,0.34-0.42
		c5.64-7.25,8.73-13.98,10.07-16.99c0.67-1.51,2.11-4.87,3.46-9.62c0.09-0.29,0.18-0.59,0.26-0.89c0.9-3.27,1.74-7.15,2.27-11.48
		c0.04-0.29,0.07-0.58,0.11-0.87v-0.01c1.18-10.49,0.52-23.53-5.34-37.19c-9.18-21.39-27.16-35.07-45.16-41.16
		c-1.98-0.67-3.96-1.24-5.93-1.73c-0.66-0.17-1.32-0.32-1.98-0.47c-15.88-3.43-29.03-0.49-33.53,0.68
		c-3,0.78-17.03,4.64-30.74,16.75c-6.52,5.76-11.15,11.77-14.29,16.67c-1.04,1.61-1.91,3.11-2.64,4.43l1-0.01l-0.7,1.31l-0.25,0.46
		l-0.52,0.01c-0.16,0-0.32,0.01-0.48,0c-0.67,0.02-1.35,0.02-2.04,0.02l-0.43-0.01h-0.01l-0.97-0.01h-0.01l0.21-0.42l0.43-0.85
		c0.08-0.16,0.17-0.32,0.26-0.49l0.54,0.01h0.46c0.4-0.77,0.82-1.53,1.25-2.28c0.33-0.56,0.67-1.13,1.02-1.68
		c13.96-22.64,41.8-40.15,72.35-38.08c4.88,0.33,9.39,1.13,13.53,2.21c2.03,0.52,3.95,1.11,5.79,1.76
		c10.67,3.72,18.04,8.98,21.2,11.42c21.16,16.32,28.04,40,29.3,54.51c0.47,5.37,0.25,10.48-0.14,14.52c-0.04,0.3-0.06,0.59-0.1,0.88
		c-0.45,4.2-1.05,7.09-1.17,7.66c-0.25,1.16-0.52,2.27-0.8,3.34c-0.08,0.3-0.16,0.6-0.25,0.89c-1.66,6.09-3.71,10.84-5.25,13.92
		c-1.13,2.29-3.97,7.74-9.07,14.08c-0.23,0.3-0.48,0.59-0.72,0.9c-3.28,3.96-7.43,8.22-12.59,12.25c-2.54,1.98-6.85,5.31-13.27,8.38
		c0,0-2.62,1.16-6.81,2.52c-4.2,1.37-9.96,2.94-16.25,3.75C168.25,317.29,144.52,315.72,115.84,303.9z"/>
	<path class="st0" d="M115.84,303.9c2.51-2.95,5.12-6.31,7.69-10.12c1.57-2.33,2.98-4.6,4.25-6.8c3.96,9.24,9.29,14.36,12.51,16.94
		c21.49,17.27,53.63,5.57,55.97,4.67c0.11-0.04,0.2-0.07,0.26-0.1c12.9-4.97,21.93-13.24,28.04-20.99c0.11-0.14,0.22-0.28,0.34-0.42
		c5.64-7.25,8.73-13.98,10.07-16.99c0.67-1.51,2.11-4.87,3.46-9.62c0.09-0.29,0.18-0.59,0.26-0.89c0.9-3.27,1.74-7.15,2.27-11.48
		c0.04-0.29,0.07-0.58,0.11-0.87v-0.01c1.18-10.49,0.52-23.53-5.34-37.19c-9.18-21.39-27.16-35.07-45.16-41.16
		c-1.98-0.67-3.96-1.24-5.93-1.73c-0.66-0.17-1.32-0.32-1.98-0.47c-15.88-3.43-29.03-0.49-33.53,0.68
		c-3,0.78-17.03,4.64-30.74,16.75c-6.52,5.76-11.15,11.77-14.29,16.67c-1.04,1.61-1.91,3.11-2.64,4.43
		c-0.17,0.31-0.34,0.61-0.49,0.89c-0.81,0.02-1.64,0.02-2.49,0.02c0.15-0.3,0.3-0.59,0.47-0.88c0.4-0.77,0.82-1.53,1.25-2.28
		c0.33-0.56,0.67-1.13,1.02-1.68c13.96-22.64,41.8-40.15,72.35-38.08c4.88,0.33,9.39,1.13,13.53,2.21c2.03,0.52,3.95,1.11,5.79,1.76
		c10.67,3.72,18.04,8.98,21.2,11.42c21.16,16.32,28.04,40,29.3,54.51c0.47,5.37,0.25,10.48-0.14,14.52c-0.04,0.3-0.06,0.59-0.1,0.88
		c-0.45,4.2-1.05,7.09-1.17,7.66c-0.25,1.16-0.52,2.27-0.8,3.34c-0.08,0.3-0.16,0.6-0.25,0.89c-1.66,6.09-3.71,10.84-5.25,13.92
		c-1.13,2.29-3.97,7.74-9.07,14.08c-0.23,0.3-0.48,0.59-0.72,0.9c-3.28,3.96-7.43,8.22-12.59,12.25c-2.54,1.98-6.85,5.31-13.27,8.38
		c0,0-2.62,1.16-6.81,2.52c-4.2,1.37-9.96,2.94-16.25,3.75C168.25,317.29,144.52,315.72,115.84,303.9z"/>
	<path class="st1" d="M511.86,238.6l-4.29,1.13c-4.38,1.15-7.7,4.74-8.51,9.19l-0.75,4.07l-0.76-4.08
		c-0.83-4.45-4.15-8.02-8.53-9.16l-4.29-1.12l4.3-1.11c4.37-1.13,7.71-4.67,8.56-9.11l0.69-3.62l0.7,3.61
		c0.86,4.44,4.2,7.98,8.58,9.09L511.86,238.6z"/>
	<path class="st1" d="M421.58,196.75l-1.22-4.27c-1.24-4.35-4.89-7.6-9.36-8.32l-4.09-0.66l4.06-0.84c4.43-0.92,7.93-4.32,8.99-8.72
		l1.03-4.31l1.19,4.27c1.22,4.35,4.83,7.61,9.28,8.37l3.63,0.62l-3.6,0.77c-4.42,0.95-7.89,4.37-8.91,8.77L421.58,196.75z"/>
	<path class="st1" d="M314.7,195.38l-1.22-4.27c-1.24-4.35-4.89-7.6-9.36-8.32l-4.09-0.66l4.06-0.84c4.43-0.92,7.93-4.32,8.99-8.72
		l1.03-4.31l1.19,4.27c1.22,4.35,4.83,7.61,9.28,8.37l3.63,0.62l-3.6,0.77c-4.42,0.95-7.89,4.37-8.91,8.77L314.7,195.38z"/>
	<path class="st0" d="M473.21,245.79"/>
	<path class="st0" d="M350.26,249.45"/>
	<g>
		<path class="st0" d="M454.77,225.49c-0.09,0-1.36-2.87-4.11-6.86C453.78,221.84,454.85,225.44,454.77,225.49z"/>
	</g>
	<g>
		<path class="st0" d="M513.26,221.35c-0.27-0.3-0.55-0.6-0.85-0.89c-3.49-3.36-7.56-4.36-9.19-4.69
			c-4.39-0.89-7.89,0.16-10.46,0.93c-1.21,0.36-4.25,1.36-7.61,3.66c-3.22,2.2-5.19,4.54-6.17,5.73
			c-6.94,8.44-10.89,16.22-18.66,25.21c-2.55,2.95-5.21,5.68-9.29,6.84c-1.78,0.5-3.51,0.59-6.97,0.85
			c-2.21,0.16-4.11,0.21-5.59,0.22l0.02,0.03l-24.86-0.13l-7.82-11.79l7.68-0.09l18,0.22c5.4-0.12,7.09-0.61,8.1-0.94
			c0.96-0.31,5.6-1.93,10-6.16c0.98-0.94,1.59-1.67,5.77-7.46c4.64-6.43,4.34-6.15,6.1-8.51c3.62-4.87,6.46-8.66,10.9-12.81
			c2.82-2.64,4.22-3.97,6.18-5.03c1.09-0.59,8.56-4.61,16.73-1.76c3.48,1.22,6.27,3.49,7.78,4.72c0.75,0.6,3.62,2.93,7.16,7.53
			C511.41,218.54,512.41,220,513.26,221.35z"/>
		<path class="st0" d="M517.12,228.38c-0.1,0-1.25-2.93-3.86-7.04C516.27,224.7,517.2,228.34,517.12,228.38z"/>
	</g>
</g>
</svg>
