<?xml version="1.0" encoding="utf-8"?>
<!-- Generator: Adobe Illustrator 25.2.1, SVG Export Plug-In . SVG Version: 6.00 Build 0)  -->
<svg version="1.1" id="Layer_1" xmlns="http://www.w3.org/2000/svg" xmlns:xlink="http://www.w3.org/1999/xlink" x="0px" y="0px"
	 viewBox="0 0 608 469" style="enable-background:new 0 0 608 469;" xml:space="preserve">
<style type="text/css">
	.st0{opacity:0.45;}
	.st1{opacity:0.3;clip-path:url(#SVGID_1_);}
	.st2{fill:#FFB200;}
	.st3{fill:#FFF934;}
	.st4{fill:#EDE97B;}
</style>
<g class="st0">
	<defs>
		<rect id="SVGID_28_" x="18.51" y="36.88" class="st0" width="560.49" height="356.34"/>
	</defs>
	<clipPath id="SVGID_1_">
		<use xlink:href="#SVGID_28_"  style="overflow:visible;"/>
	</clipPath>
	<g class="st1">
		<ellipse class="st2" cx="160.43" cy="128.72" rx="90.51" ry="256.76"/>
		<ellipse class="st3" cx="397.58" cy="72.74" rx="89.1" ry="89.85"/>
		<path class="st4" d="M397.4,171.12c-53.65,93.7-83.83,93.7-137.48,0c53.65,93.7,38.56,120.06-68.74,120.06
			c107.3,0,122.39,26.35,68.74,120.06c53.65-93.7,83.83-93.7,137.48,0c-53.65-93.7-38.56-120.06,68.74-120.06
			C358.84,291.18,343.75,264.82,397.4,171.12z"/>
		
			<ellipse transform="matrix(0.025 -0.9997 0.9997 0.025 98.3744 853.3527)" class="st2" cx="486.69" cy="376.24" rx="64.48" ry="2573.98"/>
		<ellipse class="st3" cx="328.66" cy="472.41" rx="46.26" ry="46.65"/>
		<path class="st4" d="M544.86,130.75c-27.85,48.65-43.52,48.65-71.38,0c27.85,48.65,20.02,62.33-35.69,62.33
			c55.71,0,63.54,13.68,35.69,62.33c27.85-48.65,43.52-48.65,71.38,0c-27.85-48.65-20.02-62.33,35.69-62.33
			C524.84,193.08,517,179.4,544.86,130.75z"/>
		
			<ellipse transform="matrix(0.9991 -0.0422 0.0422 0.9991 0.6476 22.1333)" class="st2" cx="524.98" cy="-4.28" rx="29.59" ry="65.75"/>
		<ellipse class="st3" cx="124.4" cy="314.71" rx="58.87" ry="59.36"/>
		<path class="st4" d="M111.35,22.54c34.78-62.28,54.72-62.5,90.82-0.98c-36.1-61.52-26.32-79.03,44.57-79.8
			c-70.88,0.77-81.04-16.54-46.25-78.82c-34.78,62.28-54.72,62.5-90.82,0.98c36.1,61.52,26.32,79.03-44.57,79.8
			C135.98-57.05,146.13-39.74,111.35,22.54z"/>
		<path class="st2" d="M304.49,41.13c2.5,0,2.5-3.91,0-3.91C301.99,37.22,301.99,41.13,304.49,41.13L304.49,41.13z"/>
		<path class="st2" d="M250.16-28.52c-0.52,0-1.03,0-1.55,0c-1.02,0-1.99,0.9-1.94,1.96c0.05,1.06,0.85,1.96,1.94,1.96
			c0.52,0,1.03,0,1.55,0c1.02,0,1.99-0.9,1.94-1.96C252.05-27.62,251.25-28.52,250.16-28.52L250.16-28.52z"/>
		<path class="st2" d="M157.02,217.22c-0.52,0-1.03,0-1.55,0c-1.02,0-1.99,0.9-1.94,1.96c0.05,1.06,0.85,1.96,1.94,1.96
			c0.52,0,1.03,0,1.55,0c1.02,0,1.99-0.9,1.94-1.96C158.91,218.12,158.11,217.22,157.02,217.22L157.02,217.22z"/>
		<path class="st2" d="M212.9,349.48c2.5,0,2.5-3.91,0-3.91C210.41,345.57,210.4,349.48,212.9,349.48L212.9,349.48z"/>
		<path class="st2" d="M379,410.53c2.5,0,2.5-3.91,0-3.91C376.5,406.61,376.5,410.53,379,410.53L379,410.53z"/>
		<path class="st2" d="M500.08,293.14c2.5,0,2.5-3.91,0-3.91C497.58,289.22,497.57,293.14,500.08,293.14L500.08,293.14z"/>
		<path class="st2" d="M449.24,136.22c0-0.52,0-1.04,0-1.57c0-1.02-0.89-2-1.94-1.96c-1.05,0.05-1.94,0.86-1.94,1.96
			c0,0.52,0,1.04,0,1.57c0,1.02,0.89,2,1.94,1.96C448.35,138.13,449.24,137.32,449.24,136.22L449.24,136.22z"/>
		<path class="st2" d="M509.39,63.05c2.5,0,2.5-3.91,0-3.91C506.89,59.13,506.89,63.05,509.39,63.05L509.39,63.05z"/>
		<path class="st2" d="M298.28,117.83c5.08,0,9.94-4.5,9.7-9.78c-0.24-5.3-4.26-9.78-9.7-9.78c-5.08,0-9.94,4.5-9.7,9.78
			C288.81,113.35,292.84,117.83,298.28,117.83L298.28,117.83z"/>
		<path class="st2" d="M445.75-16.78c5.08,0,9.94-4.5,9.7-9.78c-0.24-5.3-4.26-9.78-9.7-9.78c-5.08,0-9.94,4.5-9.7,9.78
			C436.28-21.26,440.31-16.78,445.75-16.78L445.75-16.78z"/>
		<path class="st2" d="M222.22,369.05c-0.52,0-1.03,0-1.55,0c-1.34-0.05-2.58,0.23-3.74,0.84c-1.2,0.39-2.24,1.07-3.12,2.02
			c-0.95,0.89-1.62,1.94-2.01,3.15c-0.61,1.17-0.89,2.42-0.84,3.77c0.12,0.87,0.23,1.73,0.35,2.6c0.46,1.66,1.29,3.1,2.5,4.32
			c0.65,0.51,1.31,1.02,1.96,1.53c1.51,0.89,3.15,1.33,4.9,1.34c0.52,0,1.03,0,1.55,0c1.34,0.05,2.58-0.23,3.74-0.84
			c1.2-0.39,2.24-1.07,3.12-2.02c0.95-0.89,1.62-1.94,2.01-3.15c0.61-1.17,0.89-2.42,0.84-3.77c-0.12-0.87-0.23-1.73-0.35-2.6
			c-0.46-1.66-1.29-3.1-2.5-4.32c-0.65-0.51-1.31-1.02-1.96-1.53C225.6,369.5,223.97,369.05,222.22,369.05L222.22,369.05z"/>
		<path class="st2" d="M37.49,282.18c5.08,0,9.94-4.5,9.7-9.78c-0.24-5.3-4.26-9.78-9.7-9.78c-5.08,0-9.94,4.5-9.7,9.78
			C28.03,277.7,32.05,282.18,37.49,282.18L37.49,282.18z"/>
		<path class="st3" d="M487.66,102.57c-0.52,0-1.03,0-1.55,0c-1,0-2.04,0.44-2.74,1.15c-0.67,0.68-1.18,1.79-1.14,2.77
			c0.04,1.01,0.37,2.06,1.14,2.77c0.76,0.7,1.69,1.15,2.74,1.15c0.52,0,1.03,0,1.55,0c1,0,2.04-0.44,2.74-1.15
			c0.67-0.68,1.18-1.79,1.14-2.77c-0.04-1.01-0.37-2.06-1.14-2.77C489.64,103.01,488.71,102.57,487.66,102.57L487.66,102.57z"/>
		<path class="st3" d="M444.19,265.35c2.03,0,3.98-1.8,3.88-3.91c-0.09-2.12-1.71-3.91-3.88-3.91c-2.03,0-3.98,1.8-3.88,3.91
			C440.41,263.56,442.02,265.35,444.19,265.35L444.19,265.35z"/>
		<path class="st3" d="M253.26,155.79c2.03,0,3.98-1.8,3.88-3.91c-0.09-2.12-1.71-3.91-3.88-3.91c-2.03,0-3.98,1.8-3.88,3.91
			C249.48,153.99,251.09,155.79,253.26,155.79L253.26,155.79z"/>
		<path class="st3" d="M152.36,43.09c2.03,0,3.98-1.8,3.88-3.91c-0.09-2.12-1.71-3.91-3.88-3.91c-2.03,0-3.98,1.8-3.88,3.91
			C148.58,41.3,150.19,43.09,152.36,43.09L152.36,43.09z"/>
		<path class="st3" d="M357.27,2.39c-0.52,0-1.03,0-1.55,0c-1,0-2.04,0.44-2.74,1.15c-0.67,0.68-1.18,1.79-1.14,2.77
			c0.04,1.01,0.37,2.06,1.14,2.77c0.76,0.7,1.69,1.15,2.74,1.15c0.52,0,1.03,0,1.55,0c1,0,2.04-0.44,2.74-1.15
			c0.67-0.68,1.18-1.79,1.14-2.77c-0.04-1.01-0.37-2.06-1.14-2.77C359.25,2.84,358.32,2.39,357.27,2.39L357.27,2.39z"/>
		<path class="st3" d="M195.83,252.83c2.03,0,3.98-1.8,3.88-3.91c-0.09-2.12-1.71-3.91-3.88-3.91c-2.03,0-3.98,1.8-3.88,3.91
			C192.04,251.04,193.65,252.83,195.83,252.83L195.83,252.83z"/>
		<path class="st3" d="M329.32,393.7c2.03,0,3.98-1.8,3.88-3.91c-0.09-2.12-1.71-3.91-3.88-3.91c-2.03,0-3.98,1.8-3.88,3.91
			C325.54,391.91,327.15,393.7,329.32,393.7L329.32,393.7z"/>
		<path class="st3" d="M422.46,376.48c2.03,0,3.98-1.8,3.88-3.91c-0.09-2.12-1.71-3.91-3.88-3.91c-2.03,0-3.98,1.8-3.88,3.91
			C418.67,374.69,420.29,376.48,422.46,376.48L422.46,376.48z"/>
		<path class="st3" d="M499.3,450.83c0,0.52,0,1.04,0,1.57c0,1,0.43,2.06,1.14,2.77c0.67,0.68,1.78,1.19,2.74,1.15
			c1-0.05,2.04-0.38,2.74-1.15c0.7-0.77,1.14-1.71,1.14-2.77c0-0.52,0-1.04,0-1.57c0-1-0.43-2.06-1.14-2.77
			c-0.67-0.68-1.78-1.19-2.74-1.15c-1,0.05-2.04,0.38-2.74,1.15C499.74,448.83,499.3,449.77,499.3,450.83L499.3,450.83z"/>
		<path class="st3" d="M258.7,441.44c0-0.52,0-1.04,0-1.57c0-1-0.43-2.06-1.14-2.77c-0.67-0.68-1.78-1.19-2.74-1.15
			c-1,0.05-2.04,0.38-2.74,1.15c-0.7,0.77-1.14,1.71-1.14,2.77c0,0.52,0,1.04,0,1.57c0,1,0.43,2.06,1.14,2.77
			c0.67,0.68,1.78,1.19,2.74,1.15c1-0.05,2.04-0.38,2.74-1.15C258.26,443.44,258.7,442.5,258.7,441.44L258.7,441.44z"/>
		<path class="st3" d="M70.09,407.79c2.03,0,3.98-1.8,3.88-3.91c-0.09-2.12-1.71-3.91-3.88-3.91c-2.03,0-3.98,1.8-3.88,3.91
			C66.31,406,67.92,407.79,70.09,407.79L70.09,407.79z"/>
		<path class="st4" d="M531.12,125.27c0.52,0,1.03,0,1.55,0c2.14,0.08,4.13-0.37,5.98-1.35c1.92-0.63,3.59-1.71,5-3.24
			c1.51-1.42,2.58-3.1,3.21-5.04c0.97-1.87,1.42-3.88,1.34-6.03c-0.18-1.39-0.37-2.77-0.55-4.16c-0.74-2.65-2.07-4.95-3.99-6.91
			c-1.05-0.82-2.09-1.63-3.14-2.45c-2.42-1.42-5.03-2.13-7.84-2.14c-0.52,0-1.03,0-1.55,0c-2.14-0.08-4.13,0.37-5.98,1.35
			c-1.92,0.63-3.59,1.71-5,3.24c-1.51,1.42-2.58,3.1-3.21,5.04c-0.97,1.87-1.42,3.88-1.34,6.03c0.18,1.39,0.37,2.77,0.55,4.16
			c0.74,2.65,2.07,4.95,3.99,6.91c1.05,0.82,2.09,1.63,3.14,2.45C525.71,124.55,528.32,125.26,531.12,125.27L531.12,125.27z"/>
		<path class="st4" d="M155.47,273.96c3.98,0,8.16-1.75,10.98-4.59c2.69-2.72,4.72-7.17,4.55-11.07c-0.18-4.05-1.5-8.25-4.55-11.07
			c-3.04-2.81-6.77-4.59-10.98-4.59c-3.98,0-8.16,1.75-10.98,4.59c-2.69,2.72-4.72,7.17-4.55,11.07c0.18,4.05,1.5,8.25,4.55,11.07
			C147.53,272.19,151.26,273.96,155.47,273.96L155.47,273.96z"/>
		<path class="st4" d="M392.97,483.7c3.98,0,8.16-1.75,10.98-4.59c2.69-2.72,4.72-7.17,4.55-11.07c-0.18-4.05-1.5-8.25-4.55-11.07
			c-3.04-2.81-6.77-4.59-10.98-4.59c-3.98,0-8.16,1.75-10.98,4.59c-2.69,2.72-4.72,7.17-4.55,11.07c0.18,4.05,1.5,8.25,4.55,11.07
			C385.03,481.93,388.76,483.7,392.97,483.7L392.97,483.7z"/>
		<path class="st4" d="M62.33,460.23c3.98,0,8.16-1.75,10.98-4.59c2.69-2.72,4.72-7.17,4.55-11.07c-0.18-4.05-1.5-8.25-4.55-11.07
			c-3.04-2.81-6.77-4.59-10.98-4.59c-3.98,0-8.16,1.75-10.98,4.59c-2.69,2.72-4.72,7.17-4.55,11.07c0.18,4.05,1.5,8.25,4.55,11.07
			C54.39,458.45,58.12,460.23,62.33,460.23L62.33,460.23z"/>
		<path class="st4" d="M234.63,28.22c3.98,0,8.16-1.75,10.98-4.59c2.69-2.72,4.72-7.17,4.55-11.07c-0.18-4.05-1.5-8.25-4.55-11.07
			c-3.04-2.81-6.77-4.59-10.98-4.59c-3.98,0-8.16,1.75-10.98,4.59c-2.69,2.72-4.72,7.17-4.55,11.07c0.18,4.05,1.5,8.25,4.55,11.07
			C226.69,26.45,230.43,28.22,234.63,28.22L234.63,28.22z"/>
		<path class="st4" d="M518.7,34.87c2.5,0,2.5-3.91,0-3.91C516.21,30.96,516.2,34.87,518.7,34.87L518.7,34.87z"/>
		<path class="st4" d="M481.45-41.82c2.5,0,2.5-3.91,0-3.91C478.95-45.74,478.95-41.82,481.45-41.82L481.45-41.82z"/>
		<path class="st4" d="M329.32,175.74c2.5,0,2.5-3.91,0-3.91C326.83,171.83,326.82,175.74,329.32,175.74L329.32,175.74z"/>
		<path class="st4" d="M354.16,130.35c2.5,0,2.5-3.91,0-3.91C351.66,126.44,351.66,130.35,354.16,130.35L354.16,130.35z"/>
		<path class="st4" d="M391.42,329.14c2.5,0,2.5-3.91,0-3.91C388.92,325.22,388.91,329.14,391.42,329.14L391.42,329.14z"/>
		<path class="st4" d="M79.41,139.74c2.5,0,2.5-3.91,0-3.91C76.91,135.83,76.9,139.74,79.41,139.74L79.41,139.74z"/>
		<path class="st4" d="M71.65,0.44c2.5,0,2.5-3.91,0-3.91C69.15-3.48,69.14,0.44,71.65,0.44L71.65,0.44z"/>
	</g>
</g>
</svg>
