<?xml version="1.0" encoding="utf-8"?>
<!-- Generator: Adobe Illustrator 25.2.1, SVG Export Plug-In . SVG Version: 6.00 Build 0)  -->
<svg version="1.1" id="Layer_1" xmlns="http://www.w3.org/2000/svg" xmlns:xlink="http://www.w3.org/1999/xlink" x="0px" y="0px"
	 viewBox="0 0 329 413" style="enable-background:new 0 0 329 413;" xml:space="preserve">
<style type="text/css">
	.st0{opacity:0.8;fill:#510354;}
</style>
<path id="XMLID_242_" class="st0" d="M174.56,202.25l8.72,2.15l-0.92-9.54l-0.05-0.62l0.26-0.46c1.13-1.79,1.95-3.74,2.56-5.79
	c0.51-2,0.82-4.1,0.82-6.31c0-6.46-2.56-12.25-6.77-16.46c-4.15-4.2-9.95-6.77-16.3-6.77c-6.36,0-12.15,2.56-16.3,6.77
	c-4.2,4.2-6.77,10-6.77,16.46c0,6.41,2.56,12.2,6.77,16.4c4.15,4.2,9.95,6.82,16.3,6.82c1.9,0,3.69-0.26,5.38-0.67
	c1.79-0.41,3.49-1.08,5.13-1.9l0.56-0.31L174.56,202.25z M184.81,208.41l-10.46-2.67c-1.69,0.82-3.43,1.44-5.28,1.9
	c-2,0.46-4.1,0.72-6.2,0.72c-7.33,0-14-2.97-18.76-7.79c-4.82-4.82-7.79-11.53-7.79-18.87c0-7.38,2.97-14.05,7.79-18.87
	c4.77-4.87,11.43-7.84,18.76-7.84c7.33,0,13.94,2.97,18.76,7.84c4.82,4.82,7.79,11.48,7.79,18.87c0,2.46-0.36,4.92-0.97,7.23
	c-0.62,2.15-1.49,4.25-2.61,6.15l1.13,11.48l0.21,2.41L184.81,208.41z"/>
</svg>
